<svg xmlns="http://www.w3.org/2000/svg" viewBox="0 0 600 160" font-family="Arial, sans-serif">
  <!-- Background -->
  <rect width="600" height="160" fill="#FAFAFA"/>

  <!-- Title -->
  <text x="300" y="20" font-size="12" text-anchor="middle" font-weight="bold" fill="#455A64">RF Algorithm: Time Decomposition</text>

  <!-- Time axis -->
  <line x1="40" y1="60" x2="560" y2="60" stroke="#455A64" stroke-width="2"/>
  <polygon points="560,60 550,55 550,65" fill="#455A64"/>
  <text x="575" y="65" font-size="11" font-weight="bold" fill="#455A64">t</text>

  <!-- Fixed region -->
  <rect x="60" y="45" width="140" height="30" fill="#78909C" stroke="#455A64" stroke-width="1.5"/>
  <text x="130" y="65" font-size="10" text-anchor="middle" font-weight="bold" fill="white">Fixed Region</text>

  <!-- Current window -->
  <rect x="200" y="45" width="160" height="30" fill="#4CAF50" stroke="#2E7D32" stroke-width="2"/>
  <text x="280" y="65" font-size="10" text-anchor="middle" font-weight="bold" fill="white">Current Window</text>

  <!-- Relaxed region -->
  <rect x="360" y="45" width="180" height="30" fill="#E3F2FD" stroke="#42A5F5" stroke-width="1.5" stroke-dasharray="5,3"/>
  <text x="450" y="65" font-size="10" text-anchor="middle" font-weight="bold" fill="#1565C0">Relaxed Region</text>

  <!-- Boundary labels -->
  <line x1="60" y1="80" x2="60" y2="95" stroke="#455A64" stroke-width="1"/>
  <text x="60" y="108" font-size="9" text-anchor="middle" fill="#455A64">t=1</text>

  <line x1="200" y1="80" x2="200" y2="95" stroke="#455A64" stroke-width="1"/>
  <text x="200" y="108" font-size="9" text-anchor="middle" fill="#455A64">t=k</text>

  <line x1="360" y1="80" x2="360" y2="95" stroke="#455A64" stroke-width="1"/>
  <text x="360" y="108" font-size="9" text-anchor="middle" fill="#455A64">t=k+W</text>

  <line x1="540" y1="80" x2="540" y2="95" stroke="#455A64" stroke-width="1"/>
  <text x="540" y="108" font-size="9" text-anchor="middle" fill="#455A64">t=T</text>

  <!-- Variable type labels -->
  <text x="130" y="130" font-size="9" text-anchor="middle" fill="#78909C">y, L fixed to</text>
  <text x="130" y="142" font-size="9" text-anchor="middle" font-weight="bold" fill="#455A64">previous values</text>

  <text x="280" y="130" font-size="9" text-anchor="middle" fill="#2E7D32">y, L are</text>
  <text x="280" y="142" font-size="9" text-anchor="middle" font-weight="bold" fill="#2E7D32">binary {0,1}</text>

  <text x="450" y="130" font-size="9" text-anchor="middle" fill="#1565C0">y, L relaxed to</text>
  <text x="450" y="142" font-size="9" text-anchor="middle" font-weight="bold" fill="#1565C0">continuous [0,1]</text>

  <!-- Sliding arrow (straight line, positioned below title) -->
  <line x1="280" y1="38" x2="375" y2="38" stroke="#EF5350" stroke-width="1.5" stroke-dasharray="4,2"/>
  <polygon points="380,38 372,34 372,42" fill="#EF5350"/>
  <text x="330" y="35" font-size="8" fill="#EF5350">slide</text>
</svg>
